PathFileType	4	(X/Y/Z)	 s03c0403.trc
DataRate	CameraRate	NumFrames	NumMarkers	Units	OrigDataRate	OrigDataStartFrame	OrigNumFrames
200	200	5	52	mm	200	501	2000
Frame#	Time	racr			lacr			c7			jug			rlel			rdr			llel			ldr			s2			lic			ric			lasi			rasi			rpsi			lpsi			rgt			lgt			rth1			rth2			rth3			rth4			rlfc			rmfc			rsh1			rsh2			rsh3			rsh4			rlmal			rmmal			rcal			rtoe			rmt5			rmt1			lth1			lth2			lth4			lth3			llfc			lmfc			lsh1			lsh2			lsh3			lsh4			llmal			lmmal			lcal			ltoe			lmt1			lmt5			SBIKE			LBIKE			RBIKE			
		X1	Y1	Z1	X2	Y2	Z2	X3	Y3	Z3	X4	Y4	Z4	X5	Y5	Z5	X6	Y6	Z6	X7	Y7	Z7	X8	Y8	Z8	X9	Y9	Z9	X10	Y10	Z10	X11	Y11	Z11	X12	Y12	Z12	X13	Y13	Z13	X14	Y14	Z14	X15	Y15	Z15	X16	Y16	Z16	X17	Y17	Z17	X18	Y18	Z18	X19	Y19	Z19	X20	Y20	Z20	X21	Y21	Z21	X22	Y22	Z22	X23	Y23	Z23	X24	Y24	Z24	X25	Y25	Z25	X26	Y26	Z26	X27	Y27	Z27	X28	Y28	Z28	X29	Y29	Z29	X30	Y30	Z30	X31	Y31	Z31	X32	Y32	Z32	X33	Y33	Z33	X34	Y34	Z34	X35	Y35	Z35	X36	Y36	Z36	X37	Y37	Z37	X38	Y38	Z38	X39	Y39	Z39	X40	Y40	Z40	X41	Y41	Z41	X42	Y42	Z42	X43	Y43	Z43	X44	Y44	Z44	X45	Y45	Z45	X46	Y46	Z46	X47	Y47	Z47	X48	Y48	Z48	X49	Y49	Z49	X50	Y50	Z50	X51	Y51	Z51	X52	Y52	Z52	
501	2.5050	761.281190	1453.702910	65.966729	828.486477	1486.905456	-265.085758	735.461913	1565.024980	-106.965618	756.052769	1394.716139	-111.067609	614.356644	1198.335190	149.319900	743.509777	989.855497	11.388957	708.303972	1260.431608	-415.687110	752.531524	970.578500	-419.037150	204.295530	1337.675635	-231.078896	410.703020	1332.187053	-387.280312	339.445692	1338.939798	-29.858437	401.232670	1253.147226	-352.619903	391.943839	1237.662830	-59.771018	233.078328	1384.670739	-188.302228	250.032592	1377.952341	-268.181077	296.491965	1247.602785	-26.555707	313.095108	1220.026831	-418.989479	365.294212	1091.545892	-13.325331	428.967653	1029.732316	-17.712800	455.516443	949.040674	-31.002608	459.137076	1049.752920	-25.315303	506.837074	831.805722	-64.254676	505.263373	820.481561	-181.620868	436.102449	678.325331	-38.338726	418.290458	592.223825	-53.493190	359.471167	526.002890	-53.547856	443.629608	582.566973	-81.681970	290.674105	412.468551	-69.641500	312.465827	420.440895	-159.980172	221.663762	365.775562	-106.326249	534.009022	350.564470	-108.457384	414.889929	343.357979	-36.897264	439.285456	354.313709	-151.790721	363.422157	1077.061107	-445.503244	408.077015	1002.607492	-451.998523	441.930234	1011.996496	-443.219000	409.216851	913.776801	-457.060590	444.098464	785.469144	-450.950229	445.898311	764.378767	-328.516313	303.839672	676.707754	-470.542899	262.530415	603.540830	-450.590516	184.622819	558.790415	-441.022018	287.820041	582.185030	-431.564941	93.326598	474.422395	-420.512018	130.455977	465.339698	-333.857204	24.643260	495.240266	-373.113217	200.937752	243.892196	-345.879332	138.194209	318.280252	-312.498204	113.381601	318.264571	-427.896637	-210.605386	947.598610	-226.653949	-4.526416	84.361944	-432.789305	-8.802427	80.907387	-32.402585	
502	2.5100	761.477832	1453.155235	65.731844	827.656917	1486.560498	-264.169707	735.350856	1564.634352	-107.141492	756.152535	1394.315251	-111.319958	614.073125	1198.116308	149.270212	743.492354	989.832977	11.380490	708.078295	1260.412862	-415.903352	752.616032	970.593674	-419.155627	204.559200	1336.231114	-230.985861	410.776510	1331.424603	-387.365928	339.877837	1337.647030	-29.757704	401.526416	1252.287641	-352.711814	392.404617	1236.685823	-59.813844	233.349665	1383.189688	-187.867451	250.072606	1376.711552	-267.965635	296.866162	1246.132765	-26.550573	313.672261	1219.277844	-419.130154	365.415435	1089.984704	-13.251687	428.898689	1028.015619	-17.519779	455.264807	947.277753	-30.775489	459.143617	1047.937771	-25.093384	506.314908	829.896384	-63.975431	504.963534	818.748914	-181.493748	435.927161	676.231164	-37.931755	418.358194	590.119279	-53.003484	359.632400	523.718582	-53.013820	443.644551	580.475468	-81.244616	291.214084	409.748913	-69.463257	312.413838	418.070623	-159.416548	221.848762	363.488404	-105.439070	534.220663	347.536447	-108.669159	415.269802	340.676128	-36.669954	439.313915	351.548787	-151.735367	365.047490	1076.797881	-445.615149	410.187322	1002.554769	-452.088594	443.977094	1012.169912	-443.189196	411.826721	913.829946	-457.395301	447.273251	785.631019	-451.536198	449.613262	764.415468	-329.164570	306.287942	677.711875	-470.813982	264.393441	604.989593	-450.657718	186.161318	560.865997	-440.967549	289.522162	583.419398	-431.519310	94.190118	477.203330	-420.309494	131.148512	467.894029	-333.659601	25.545291	498.305071	-372.862910	200.730969	246.100645	-345.913717	138.304202	320.704310	-312.432240	113.562556	320.941143	-427.722798	-210.598314	947.595195	-226.630847	-4.527065	84.375686	-432.785209	-8.786578	80.891057	-32.401687	
503	2.5150	761.611206	1452.669216	65.468564	827.410591	1486.551170	-264.413226	735.225893	1564.207907	-107.325727	756.237444	1393.826914	-111.733035	613.721147	1197.921750	149.134222	743.492853	989.816122	11.385264	707.863655	1260.420609	-416.104239	752.629964	970.620165	-419.246815	204.819517	1334.741401	-230.996512	410.822654	1330.659863	-387.409249	340.214625	1336.353654	-29.715082	401.797070	1251.519556	-352.855489	392.854157	1235.708066	-59.866755	233.600131	1381.688587	-187.532512	250.044784	1375.412211	-267.697794	297.217934	1244.685485	-26.538415	314.306723	1218.513344	-419.389042	365.570906	1088.279705	-13.199698	428.828417	1026.297567	-17.321378	455.000017	945.502334	-30.538275	459.115680	1046.190459	-24.860368	505.811776	827.997647	-63.662696	504.664485	816.851724	-181.202871	435.782700	674.145411	-37.493440	418.408229	587.982797	-52.511350	359.787615	521.484999	-52.455920	443.663467	578.367090	-80.829753	291.566536	407.341717	-68.952275	311.008619	415.828245	-159.482385	222.145803	361.349347	-104.679376	534.411194	344.417126	-108.882969	415.650348	337.730725	-36.470133	439.502528	348.876627	-151.465958	366.640484	1076.429694	-445.661017	412.265881	1002.508776	-452.160944	445.936646	1012.268443	-443.161018	414.456676	913.790926	-457.771125	450.407010	785.759738	-452.080802	452.396516	764.451794	-329.510621	308.806814	678.695978	-471.139088	266.368362	606.354748	-450.749609	187.739345	562.885108	-440.949878	291.311188	584.725926	-431.713764	95.085289	479.978365	-420.065549	131.887961	470.484367	-333.518295	26.447047	501.316324	-372.641177	200.585821	248.681321	-346.313554	138.532402	323.142835	-312.374386	113.793277	323.624556	-427.579903	-210.576520	947.607034	-226.603612	-4.527617	84.385370	-432.745636	-8.785024	80.887544	-32.387936	
504	2.5200	761.706230	1452.232239	65.213926	827.146781	1486.560305	-264.682359	735.075127	1563.857149	-107.555126	756.261984	1393.446466	-112.082035	613.405277	1197.723602	149.013643	743.471536	989.775436	11.430246	707.603481	1260.401081	-416.312081	752.644287	970.662491	-419.317438	205.029787	1333.283075	-231.449947	410.862536	1329.816038	-387.493964	340.530426	1334.906645	-29.662868	402.062100	1250.559217	-352.967051	393.292269	1234.729760	-59.929953	233.865231	1380.119814	-187.330353	250.040504	1374.168772	-267.588891	297.563987	1243.173209	-26.537354	314.866128	1217.652879	-419.512129	365.647537	1086.769608	-13.110767	428.752726	1024.635241	-17.112911	454.736154	943.772261	-30.240683	459.155210	1044.447929	-24.625003	505.286131	826.105089	-63.271565	504.332877	814.916858	-180.805735	435.652539	672.025980	-37.052072	418.427438	585.757017	-52.071124	359.954786	519.191678	-51.924205	443.719561	576.280667	-80.397767	291.915209	404.843573	-68.491559	311.152477	413.325983	-158.868061	222.410956	359.156650	-104.113045	534.593110	341.226454	-108.859151	415.877823	334.829115	-36.272523	439.595432	345.966530	-151.351720	368.161599	1076.031939	-445.764591	414.290976	1002.447951	-452.326676	447.873265	1012.357348	-443.215573	417.037634	913.737026	-458.112025	453.643387	785.921860	-452.587360	455.456104	764.592613	-329.913050	311.375490	679.667446	-471.381065	268.528650	608.274831	-451.826553	189.366484	564.947228	-440.946678	292.974145	585.786406	-431.774549	96.094725	482.851174	-419.861113	132.648856	473.050713	-333.384618	27.455167	504.368279	-372.385210	200.468524	250.928210	-346.341698	138.781754	325.611904	-312.377113	114.058064	326.325212	-427.458244	-210.563221	947.616665	-226.548723	-4.517118	84.384197	-432.780628	-8.779704	80.889508	-32.385499	
505	2.5250	761.743583	1451.659210	64.880957	826.843674	1486.576215	-264.946266	734.913573	1563.473155	-107.786422	756.298540	1393.111310	-112.445280	613.120051	1197.490512	148.867793	743.484483	989.759062	11.434900	707.303456	1260.400038	-416.554165	752.650792	970.697173	-419.323834	205.216493	1331.724306	-231.060767	410.910387	1328.980066	-387.532977	340.843388	1333.553213	-29.618787	402.314210	1249.662031	-353.086657	393.718764	1233.751111	-60.003640	234.064282	1378.491077	-187.078041	250.028844	1372.891510	-267.488901	297.903482	1241.645682	-26.526517	315.467293	1216.769706	-419.699070	365.743844	1085.249928	-13.009841	428.694757	1022.944549	-16.885875	454.516384	942.038281	-29.937369	459.179872	1042.656957	-24.345813	504.750762	824.153791	-62.871440	504.004181	812.874485	-180.376944	435.522637	669.916535	-36.639326	418.516039	583.605139	-51.608614	360.197664	516.950402	-51.468253	443.805369	574.190842	-79.953193	292.304131	402.421483	-68.095003	311.335523	410.964863	-158.448618	222.635211	357.040081	-103.748893	534.769523	338.083039	-108.840296	416.138263	331.971042	-36.113287	439.675452	343.146649	-151.295484	369.628488	1075.622379	-445.951942	416.253774	1002.324029	-452.524944	449.723124	1012.475115	-443.298567	419.531523	913.729318	-458.452245	456.833079	786.022240	-453.063520	458.400623	764.692168	-330.261500	313.986720	680.616532	-471.638341	270.579495	609.691723	-452.014288	191.062608	566.914576	-440.947798	294.829789	587.073100	-431.797527	97.022895	485.645552	-419.730324	133.540544	475.650741	-333.254770	28.292449	507.691885	-372.547861	200.366649	253.166730	-346.307245	139.048707	328.110887	-312.346809	114.332804	329.086196	-427.339001	-210.530482	947.620870	-226.506703	-4.518233	84.395781	-432.759971	-8.799179	80.899676	-32.385225	
